<?xml version="1.0" encoding="UTF-8"?>
<!DOCTYPE svg PUBLIC "-//W3C//DTD SVG 1.1//EN" "http://www.w3.org/Graphics/SVG/1.1/DTD/svg11.dtd">
<!-- Creator: CorelDRAW 2020 (64 Bit) -->
<svg xmlns="http://www.w3.org/2000/svg" xml:space="preserve" width="16.2558mm" height="16.2558mm" version="1.1" style="shape-rendering:geometricPrecision; text-rendering:geometricPrecision; image-rendering:optimizeQuality; fill-rule:evenodd; clip-rule:evenodd"
viewBox="0 0 1625.58 1625.58"
 xmlns:xlink="http://www.w3.org/1999/xlink"
 xmlns:xodm="http://www.corel.com/coreldraw/odm/2003">
 <defs>
  <style type="text/css">
   <![CDATA[
    .fil0 {fill:#f5f5fc;fill-rule:nonzero}
   ]]>
  </style>
 </defs>
 <g id="Camada_x0020_1">
  <metadata id="CorelCorpID_0Corel-Layer"/>
  <g id="_2055801675808">
   <path class="fil0" d="M744.79 446.63l0 290.85c-53.07,12.81 -100.51,39.48 -141.23,81.16 -8.23,8.41 -15.84,17.1 -22.86,26.04l-1.83 0 0 -398.05 -127.37 0 0 -160.9 419.83 0 0 160.9 -126.54 0z"/>
   <path class="fil0" d="M811.06 1012.2l158.38 0c34.08,42.31 51.12,87.01 51.12,134.07 0,54.75 -19.97,100.56 -59.92,137.85 -40.09,37.16 -89.25,55.73 -147.63,55.73 -75.84,0 -140.22,-28.78 -193.15,-86.31 -52.95,-57.68 -79.48,-127.8 -79.48,-210.48 0,-82.96 26.96,-151.96 80.87,-207.13 53.91,-55.17 121.23,-82.68 201.95,-82.68 9.88,0 20.13,0.7 30.76,2.08l0 -174.7c0,-53.63 15.37,-95.25 46.1,-124.87 30.87,-29.46 74.02,-44.27 129.88,-44.27l144.14 0 0 160.9 -105.86 0c-28.36,0 -42.46,9.36 -42.46,27.93 0,10.9 3.35,18.44 10.05,22.62 6.85,4.34 18.86,6.44 36.04,6.44l91.33 0 0 124.01 -107.95 0c-14.67,0 -25.14,2.24 -31.15,6.57 -6.14,4.47 -9.22,11.87 -9.22,22.35 0,11.87 3.08,19.55 9.36,23.32 6.29,3.78 19,5.59 38.27,5.59l111.59 0 0 159.22 -130.31 0c-99.51,0 -130.08,-52.1 -200.46,-52.1 -39.1,0 -70.94,12.15 -95.67,36.45 -24.71,24.16 -37.14,55.72 -37.14,94.41 0,39.52 11.45,70.95 34.49,94.14 23.05,23.18 54.05,34.78 93.16,34.78 25,0 37.43,-7.54 37.43,-22.49 0,-11.31 -8.23,-16.9 -24.86,-16.9l-39.66 0 0 -126.53z"/>
  </g>
 </g>
</svg>
